<?xml version="1.0" standalone="no"?>
<!DOCTYPE svg PUBLIC "-//W3C//DTD SVG 20010904//EN"
 "http://www.w3.org/TR/2001/REC-SVG-20010904/DTD/svg10.dtd">
<svg version="1.0" xmlns="http://www.w3.org/2000/svg"
 width="1400.000000pt" height="1400.000000pt" viewBox="0 0 1400.000000 1400.000000"
 preserveAspectRatio="xMidYMid meet">
<metadata>
Created by potrace 1.11, written by Peter Selinger 2001-2013
</metadata>
<g transform="translate(0.000000,1400.000000) scale(0.100000,-0.100000)"
fill="#000000" stroke="none">
<path d="M3925 13904 c-212 -21 -274 -28 -365 -45 -603 -113 -1047 -413 -1329
-897 -44 -76 -151 -291 -151 -304 0 -5 13 -8 30 -8 52 0 400 -50 535 -77 142
-28 226 -56 505 -173 336 -140 549 -239 1130 -525 918 -451 1009 -491 2523
-1089 383 -152 714 -287 736 -301 21 -15 42 -36 45 -48 9 -37 85 -102 211
-181 155 -97 183 -121 207 -176 37 -83 11 -231 -77 -445 -18 -44 -86 -195
-150 -335 -158 -343 -212 -469 -275 -635 -28 -77 -53 -141 -54 -143 -2 -1 -33
14 -70 33 -109 57 -187 46 -260 -35 -68 -75 -118 -211 -146 -392 -18 -116 -24
-485 -11 -663 31 -428 123 -924 233 -1265 148 -460 420 -928 727 -1252 l91
-96 -27 -70 -27 -69 -265 -6 c-502 -12 -1074 -86 -1609 -208 -76 -18 -97 -27
-117 -51 -14 -16 -25 -37 -25 -46 0 -9 21 -120 47 -247 38 -186 52 -234 70
-252 28 -29 70 -29 178 -4 381 91 957 170 1352 187 l152 7 -25 -79 c-38 -122
-132 -472 -164 -615 -55 -243 -104 -540 -132 -809 -17 -166 -17 -778 0 -920
50 -409 150 -742 263 -871 l29 -34 30 35 c70 80 175 324 261 606 28 93 55 173
59 177 4 5 10 -16 14 -45 4 -29 20 -114 37 -188 98 -440 245 -775 415 -945 65
-66 86 -69 107 -17 29 72 67 227 92 376 14 82 27 151 29 153 2 2 6 -20 10 -49
25 -193 126 -544 188 -656 41 -74 77 -122 92 -122 34 0 135 184 186 339 67
205 125 479 161 752 21 161 39 226 39 141 0 -56 36 -375 61 -537 33 -223 95
-445 123 -445 32 0 125 94 193 195 77 114 179 347 237 537 38 127 92 357 112
483 10 61 21 114 24 118 4 5 13 -13 19 -40 46 -184 156 -506 223 -653 43 -93
116 -210 131 -210 29 0 120 157 165 285 55 157 98 355 128 600 22 174 25 700
6 905 -35 370 -108 761 -222 1184 -28 104 -49 190 -48 191 2 2 66 15 143 29
275 53 622 146 970 261 182 60 215 81 215 135 0 26 -103 381 -132 453 -11 29
-53 57 -85 57 -11 0 -79 -20 -153 -45 -340 -114 -750 -225 -984 -265 -192 -33
-173 -42 -230 112 l-50 131 52 46 c198 178 436 503 603 825 169 326 264 607
348 1031 136 680 155 1282 51 1622 -70 230 -196 312 -355 233 -33 -16 -70 -37
-82 -46 -26 -19 -20 -39 -63 196 -100 547 -150 1059 -150 1538 0 934 -276
1644 -824 2120 -333 289 -754 510 -1080 567 -286 49 -496 -22 -496 -168 l0
-35 -97 38 c-54 21 -340 133 -636 249 -296 117 -629 246 -740 287 -879 329
-1638 524 -2267 584 -119 11 -545 21 -615 14z"/>
</g>
</svg>
