<?xml version="1.0" standalone="no"?>
<!DOCTYPE svg PUBLIC "-//W3C//DTD SVG 20010904//EN"
 "http://www.w3.org/TR/2001/REC-SVG-20010904/DTD/svg10.dtd">
<svg version="1.0" xmlns="http://www.w3.org/2000/svg"
 width="752.000000pt" height="752.000000pt" viewBox="0 0 752.000000 752.000000"
 preserveAspectRatio="xMidYMid meet">
<metadata>
Created by potrace 1.11, written by Peter Selinger 2001-2013
</metadata>
<g transform="translate(0.000000,752.000000) scale(0.100000,-0.100000)"
fill="#000000" stroke="none">
<path d="M3555 6283 c-192 -27 -377 -143 -480 -298 -36 -55 -81 -153 -90 -195
-1 -3 -7 -32 -14 -65 -18 -89 -19 -89 -48 -107 -25 -15 -32 -15 -68 -1 -131
48 -163 56 -245 56 -47 0 -105 -6 -130 -13 -25 -8 -54 -15 -64 -17 -11 -2 -27
-9 -35 -16 -9 -7 -34 -21 -56 -32 -51 -26 -143 -118 -180 -181 -51 -87 -73
-169 -73 -273 0 -54 5 -110 13 -132 8 -21 12 -39 10 -39 -7 0 40 -93 73 -144
38 -59 39 -72 9 -109 -21 -27 -29 -29 -101 -33 -328 -16 -595 -240 -660 -554
-12 -61 -14 -195 -2 -265 8 -55 48 -158 84 -219 103 -175 262 -285 482 -332
13 -3 54 -6 91 -8 80 -3 113 -21 124 -68 4 -18 8 -35 9 -38 7 -24 51 -110 57
-110 4 0 10 -8 13 -18 5 -15 42 -55 104 -113 47 -43 168 -97 242 -107 127 -17
242 1 344 56 71 38 118 11 137 -76 11 -53 55 -159 79 -187 8 -9 7 -130 -1
-130 -1 0 -3 -11 -4 -25 -8 -89 -16 -169 -20 -195 -3 -16 -7 -57 -10 -90 -3
-33 -8 -78 -10 -100 -7 -60 -14 -130 -20 -182 -11 -115 -15 -152 -22 -208 -12
-104 -3 -143 42 -191 24 -25 97 -49 145 -46 11 1 241 1 315 1 6 0 128 0 273 1
247 1 265 2 302 22 27 15 47 36 61 66 22 44 22 90 4 212 -3 19 -7 58 -10 85
-2 28 -6 61 -9 75 -2 14 -7 50 -10 80 -4 30 -8 66 -10 80 -5 25 -11 74 -21
168 -3 26 -8 61 -10 77 -2 17 -7 53 -10 80 -4 28 -8 61 -10 74 -3 14 -7 54
-11 90 -3 36 -8 69 -10 73 -3 4 2 20 9 35 19 36 45 114 51 150 3 16 8 48 11
73 7 52 30 79 71 86 24 4 38 -4 79 -41 139 -127 314 -129 449 -5 25 24 46 49
46 56 0 8 4 14 8 14 6 0 30 64 48 127 1 6 15 20 29 29 23 15 35 16 93 7 271
-43 528 59 684 273 44 61 93 158 103 204 4 19 10 39 13 45 15 25 22 213 10
273 -5 26 -11 59 -13 75 -4 26 -70 170 -97 211 -28 42 -136 144 -188 178 -30
19 -81 47 -113 61 -58 26 -79 54 -72 93 2 11 4 22 4 26 1 4 27 26 58 50 32 23
69 54 82 68 31 34 84 110 75 110 -3 0 -2 6 4 13 22 27 43 131 41 201 -3 85
-11 117 -58 215 -40 83 -185 194 -281 216 -60 14 -171 13 -224 -2 -28 -8 -55
-15 -61 -17 -5 -1 -19 -7 -30 -13 -31 -16 -77 -5 -100 24 -71 92 -147 134
-249 138 -45 2 -87 -3 -111 -11 -61 -22 -81 -25 -109 -15 -30 12 -44 37 -51
87 -19 150 -103 306 -223 414 -47 43 -154 114 -172 115 -3 0 -11 4 -17 8 -12
8 -95 34 -137 44 -31 6 -196 11 -231 6z m129 -1678 c4 -23 9 -52 11 -65 5 -22
10 -52 19 -115 2 -11 6 -33 9 -50 4 -16 9 -46 11 -65 3 -20 7 -47 10 -60 7
-32 15 -79 30 -187 4 -29 11 -53 16 -53 4 0 18 8 31 18 13 10 56 40 94 67 39
26 72 51 75 54 4 5 90 65 182 128 18 13 38 26 43 31 6 4 66 47 135 96 69 49
147 105 175 125 27 20 45 29 40 21 -15 -25 -149 -215 -155 -220 -3 -3 -18 -25
-34 -49 -16 -25 -33 -50 -38 -55 -35 -43 -98 -133 -98 -143 0 -6 -4 -13 -8
-15 -12 -4 -92 -115 -92 -127 0 -5 -4 -11 -8 -13 -4 -1 -32 -38 -62 -80 -29
-43 -57 -78 -62 -78 -4 0 -8 -5 -8 -11 0 -6 -26 -48 -59 -92 -69 -97 -82 -121
-77 -139 3 -7 8 -40 11 -73 6 -63 8 -76 19 -165 4 -30 9 -71 11 -90 3 -19 8
-57 11 -85 3 -27 7 -61 9 -75 10 -91 17 -139 21 -165 3 -16 7 -50 9 -75 2 -25
6 -61 9 -80 3 -19 8 -57 11 -85 3 -27 8 -66 10 -85 2 -19 7 -60 10 -90 4 -30
8 -66 10 -80 4 -31 13 -99 20 -165 3 -27 8 -61 10 -75 2 -14 7 -50 10 -80 4
-30 9 -66 10 -80 2 -14 7 -54 10 -90 4 -35 8 -71 10 -80 3 -16 13 -91 20 -147
l4 -33 -57 0 c-52 -1 -748 0 -781 0 -11 0 -12 13 -7 63 4 34 9 80 11 102 2 22
7 65 10 95 7 63 11 100 19 190 3 36 8 81 11 100 3 19 7 60 10 90 3 30 8 73 10
95 11 99 17 143 21 178 3 21 7 61 9 90 3 29 7 70 10 92 3 22 7 60 9 85 3 25 5
45 6 45 1 0 8 75 11 121 2 22 -10 49 -42 95 -24 35 -47 66 -50 69 -3 3 -20 28
-39 55 -19 28 -37 52 -40 55 -4 3 -31 40 -61 83 -30 43 -61 88 -69 100 -8 12
-18 24 -22 25 -5 2 -8 8 -8 13 0 6 -11 22 -25 37 -14 15 -25 32 -25 39 0 6 -3
13 -8 15 -4 2 -57 73 -117 158 -101 143 -153 215 -190 264 -34 45 -8 29 225
-138 19 -14 87 -62 150 -106 63 -44 123 -87 133 -95 9 -8 19 -15 22 -15 5 0
79 -54 118 -86 9 -8 20 -14 23 -14 3 0 26 -16 52 -36 l47 -36 11 51 c7 29 15
71 18 94 3 23 12 80 21 127 8 47 17 99 19 115 2 17 7 44 10 60 3 17 10 62 17
100 6 39 13 79 15 90 6 30 25 145 30 180 3 17 9 53 15 80 5 28 11 64 13 80 3
17 7 46 11 65 4 19 8 44 10 55 3 34 17 96 20 93 2 -2 6 -21 9 -43z"/>
</g>
</svg>
